<?xml version="1.0" standalone="no"?>
<!DOCTYPE svg PUBLIC "-//W3C//DTD SVG 20010904//EN"
 "http://www.w3.org/TR/2001/REC-SVG-20010904/DTD/svg10.dtd">
<svg version="1.0" xmlns="http://www.w3.org/2000/svg"
 width="2600.000000pt" height="1000.000000pt" viewBox="250 -50 250 240"
 preserveAspectRatio="xMidYMid meet">

<g transform="translate(0.000000,200.000000) scale(0.100000,-0.100000)"
fill="#ffffff" stroke="none">
<path d="M2495 1898 c-3 -7 -4 -407 -3 -888 l3 -875 568 -3 567 -2 0 890 0
890 -565 0 c-443 0 -567 -3 -570 -12z m1025 -883 l0 -775 -455 0 -455 0 0 774
c0 506 3 775 10 778 5 2 210 2 455 0 l445 -2 0 -775z"/>
<path d="M3065 1180 c-139 -69 -116 -279 36 -320 77 -21 155 13 196 85 84 148
-78 312 -232 235z"/>
<path d="M3935 1186 c-17 -7 -43 -27 -57 -44 -91 -108 -35 -262 104 -287 69
-13 157 35 184 102 61 144 -88 291 -231 229z"/>
<path d="M4785 1180 c-105 -53 -125 -196 -38 -277 105 -100 277 -37 291 106
13 139 -127 234 -253 171z"/>
</g>
</svg>
