<?xml version="1.0" standalone="no"?>
<!DOCTYPE svg PUBLIC "-//W3C//DTD SVG 20010904//EN"
 "http://www.w3.org/TR/2001/REC-SVG-20010904/DTD/svg10.dtd">
<svg version="1.0" xmlns="http://www.w3.org/2000/svg"
 width="800.000000pt" height="200.000000pt" viewBox="0 0 800.000000 200.000000"
 preserveAspectRatio="xMidYMid meet">

<g transform="translate(0.000000,200.000000) scale(0.100000,-0.100000)"
fill="#000000" stroke="none">
<path d="M2495 1898 c-3 -7 -4 -407 -3 -888 l3 -875 568 -3 567 -2 0 890 0
890 -565 0 c-443 0 -567 -3 -570 -12z m1025 -883 l0 -775 -455 0 -455 0 0 774
c0 506 3 775 10 778 5 2 210 2 455 0 l445 -2 0 -775z"/>
<path d="M3065 1180 c-139 -69 -116 -279 36 -320 77 -21 155 13 196 85 84 148
-78 312 -232 235z"/>
<path d="M3935 1186 c-17 -7 -43 -27 -57 -44 -91 -108 -35 -262 104 -287 69
-13 157 35 184 102 61 144 -88 291 -231 229z"/>
<path d="M4785 1180 c-105 -53 -125 -196 -38 -277 105 -100 277 -37 291 106
13 139 -127 234 -253 171z"/>
<path d="M3720 330 l0 -190 115 0 115 0 0 30 0 29 -72 3 -73 3 -3 43 -3 42 65
0 66 0 0 35 0 35 -65 0 -65 0 0 45 0 45 71 0 70 0 -3 33 -3 32 -107 3 -108 3
0 -191z"/>
<path d="M4010 330 l0 -190 115 0 115 0 0 30 0 29 -72 3 -73 3 -3 158 -3 157
-39 0 -40 0 0 -190z"/>
<path d="M4290 330 l0 -190 40 0 39 0 3 63 3 62 56 6 c73 8 115 37 129 90 13
46 1 96 -28 122 -24 22 -94 36 -174 37 l-68 0 0 -190z m172 103 c42 -38 6
-103 -57 -103 l-35 0 0 60 0 60 37 0 c20 0 45 -7 55 -17z"/>
<path d="M4699 497 c-63 -33 -94 -92 -94 -178 0 -55 4 -72 28 -108 80 -120
276 -101 326 32 19 51 13 148 -12 192 -46 82 -157 109 -248 62z m144 -68 c54
-42 58 -150 6 -201 -75 -76 -178 14 -155 135 14 76 93 111 149 66z"/>
<path d="M5000 513 c1 -5 25 -48 54 -97 l54 -90 -52 -80 c-29 -45 -55 -87 -60
-93 -5 -10 6 -13 43 -13 l51 0 36 72 36 71 36 -71 37 -72 48 0 c27 0 46 3 44
8 -2 4 -27 46 -56 94 l-53 87 56 90 c31 50 56 93 56 96 0 3 -20 5 -45 5 l-45
0 -35 -70 c-19 -38 -37 -70 -39 -70 -3 0 -19 32 -37 70 l-32 70 -48 0 c-27 0
-49 -3 -49 -7z"/>
</g>
</svg>
